# xmcd CD database file
#
# Track frame offsets:
#	150
#	9660
#	22255
#	35850
#	45242
#	54405
#	63742
#	73092
#	82180
#	91235
#	104375
#	116330
#	128670
#	141545
#	154395
#	167915
#
# Disc length: 2351 seconds
#
# Revision: 1
# Processed by: cddbd v1.5.1PL0 Copyright (c) Steve Scherf et al.
# Submitted via: CDex 1.51
#
DISCID=e8092d10
DTITLE=Brown's Ferry Four - Sixteen Sacred Songs
DYEAR=1988
DGENRE=Country
TTITLE0=Will The Circle Be Unbroken
TTITLE1=Just A Little Talk With Jesus
TTITLE2=If We Never Meet Again
TTITLE3=The Lord Is Watching Over Me
TTITLE4=Everybody Will Be Happy Over There
TTITLE5=Hallelujah Morning
TTITLE6=When The Good Lord Cares
TTITLE7=Over In The Glory Land
TTITLE8=When He Blessed My Soul
TTITLE9=I'm Natuarlized For Heaven
TTITLE10=When He Calls His Reapers
TTITLE11=Throne Eternal
TTITLE12=I'll Meet You In The Morning
TTITLE13=Jesus Hold My Hand
TTITLE14=We Should Walk Together
TTITLE15=There's A Page In The Bible
EXTD=YEAR: 1988
EXTT0=
EXTT1=
EXTT2=
EXTT3=
EXTT4=
EXTT5=
EXTT6=
EXTT7=
EXTT8=
EXTT9=
EXTT10=
EXTT11=
EXTT12=
EXTT13=
EXTT14=
EXTT15=
PLAYORDER=
